# xmcd
#
# Track frame offsets:
# 150
# 10246
# 24707
# 37493
# 50338
# 62079
# 79591
# 87472
# 96618
# 112964
# 123868
# 155064
# 170176
# 186942
# 198804
# 209915
# 222798
# 237990
# 250772
# 259253
# 276281
# 289902
# 304513
# 322286
#
# Disc length: 4459 seconds
#
# Revision: 1
# Processed by: cddbd v1.5.1PL0 Copyright (c) Steve Scherf et al.
# Submitted via: CedeCatalogueitor 2.6.0.6 http://personales.ya.com/cdcatalogueitor
#
DISCID=75116918
DTITLE=Juan Gabriel - 15 Años De Exitos Rancheros
DYEAR=1992
DGENRE=
TTITLE0=Ya No Vuelvo A Molestarte
TTITLE1=Estoy Enamorado De Ti
TTITLE2=Ya No Insista Mi Corazon
TTITLE3=17 Años
TTITLE4=Esta Noche Voy A Verla
TTITLE5=Mañana Te Acordaras
TTITLE6=Donde Andara
TTITLE7=Cuando Decidas Volver
TTITLE8=Cuando Todo Acabe
TTITLE9=Que Chasco Me Lleve
TTITLE10=Asi Fue
TTITLE11=Te Voy A Olvidar
TTITLE12=Mis Ojos Tristes
TTITLE13=Con Un Poco De Amor
TTITLE14=No Vale La Pena
TTITLE15=Se Me Olvido Otra Vez
TTITLE16=La Muerte Del Palomo
TTITLE17=La Farsante
TTITLE18=Ases Y Tercia De Reyes
TTITLE19=Con Todo Y Mi Tristesa
TTITLE20=Lagrimas Y Lluvia
TTITLE21=La Diferencia
TTITLE22=Inocente Pobre Amigo
TTITLE23=Te Sigo Amando
EXTD=
EXTT0=
EXTT1=
EXTT2=
EXTT3=
EXTT4=
EXTT5=
EXTT6=
EXTT7=
EXTT8=
EXTT9=
EXTT10=
EXTT11=
EXTT12=
EXTT13=
EXTT14=
EXTT15=
EXTT16=
EXTT17=
EXTT18=
EXTT19=
EXTT20=
EXTT21=
EXTT22=
EXTT23=
PLAYORDER=
